<svg width="21" height="21" viewBox="0 0 21 21" fill="none" xmlns="http://www.w3.org/2000/svg">
  <path fill-rule="evenodd" clip-rule="evenodd" d="M9.72504 0.919556C8.68019 0.919556 7.83317 1.76658 7.83317 2.81143V8.74567L1.89895 8.74567C0.854099 8.74567 0.00708008 9.59269 0.00708008 10.6375V19.0273C0.00708008 20.0722 0.854102 20.9192 1.89895 20.9192H18.1148C18.1801 20.9192 18.2446 20.9159 18.3082 20.9094C18.4072 20.8993 18.504 20.8817 18.5979 20.8569C19.4087 20.6434 20.0067 19.9052 20.0067 19.0273V10.6375C20.0067 10.6351 20.0067 10.6326 20.0067 10.6301V2.81143C20.0067 1.76658 19.1597 0.919556 18.1148 0.919556H9.72504Z" fill="#F2CA52" fill-opacity="0.3"/>
  <path fill-rule="evenodd" clip-rule="evenodd" d="M8.91424 8.74567C8.91424 9.34273 8.43023 9.82674 7.83317 9.82674L1.89895 9.82674C1.45116 9.82674 1.08815 10.1898 1.08815 10.6375V19.0273C1.08815 19.4751 1.45116 19.8381 1.89895 19.8381H18.1148C18.1434 19.8381 18.1715 19.8367 18.199 19.8339C18.2416 19.8295 18.2828 19.822 18.3226 19.8115C18.6704 19.7199 18.9256 19.402 18.9256 19.0273V10.6375L18.9256 10.6301V2.81143C18.9256 2.36363 18.5626 2.00063 18.1148 2.00063H9.72504C9.27725 2.00063 8.91424 2.36363 8.91424 2.81143V8.74567ZM7.83317 2.81143C7.83317 1.76658 8.68019 0.919556 9.72504 0.919556H18.1148C19.1597 0.919556 20.0067 1.76658 20.0067 2.81143V10.6301L20.0067 10.6375V19.0273C20.0067 19.9052 19.4087 20.6434 18.5979 20.8569C18.504 20.8817 18.4072 20.8993 18.3082 20.9094C18.2446 20.9159 18.1801 20.9192 18.1148 20.9192H1.89895C0.854102 20.9192 0.00708008 20.0722 0.00708008 19.0273V10.6375C0.00708008 9.59269 0.854099 8.74567 1.89895 8.74567L7.83317 8.74567V2.81143Z" fill="#F2CA52"/>
  <path fill-rule="evenodd" clip-rule="evenodd" d="M14.3556 6.60591C14.3556 6.36579 14.1609 6.17114 13.9208 6.17114C13.6807 6.17114 13.4861 6.36579 13.4861 6.60591V12.4362C13.4516 12.7758 13.3123 13.2832 13.0158 13.6968C12.7256 14.1018 12.2932 14.4111 11.6281 14.4111H4.97763L7.27306 12.1156C7.44285 11.9459 7.44284 11.6706 7.27306 11.5008C7.10327 11.331 6.82799 11.331 6.6582 11.5008L3.64677 14.5123C3.55485 14.5892 3.4952 14.7033 3.49105 14.8315C3.48655 14.9483 3.52888 15.0666 3.61806 15.1558L6.6582 18.196C6.82799 18.3657 7.10327 18.3657 7.27306 18.196C7.44284 18.0262 7.44284 17.7509 7.27306 17.5811L4.97259 15.2806H11.6281C12.622 15.2806 13.2995 14.7937 13.7226 14.2033C14.134 13.6294 14.3119 12.9535 14.3538 12.4968L14.3556 12.477V6.60591Z" fill="#F2CA52"/>
</svg>